<svg width="58" height="49" viewBox="0 0 58 49" fill="none" xmlns="http://www.w3.org/2000/svg">
<g clipPath="url(#clip0_5305_16845)">
<path d="M28.3684 2.94897C24.0319 2.94897 20.5124 6.46848 20.5124 10.805C20.5124 6.46848 16.9929 2.94897 12.6563 2.94897C8.3198 2.94897 4.80029 6.46848 4.80029 10.805C4.80029 19.4781 15.7987 28.4654 20.5124 28.4654C25.226 28.4654 36.2244 19.4781 36.2244 10.805C36.2244 6.46848 32.7049 2.94897 28.3684 2.94897Z" fill="#DF9A6D"/>
<g opacity="0.5">
<path d="M25.3726 31.7649C24.7127 31.7649 24.0528 32.0163 23.55 32.5191C22.5759 33.5246 22.6073 35.0959 23.6129 36.07L27.6037 39.9352C28.0751 40.3751 28.7036 40.6265 29.3635 40.6265L34.3913 39.4952L30.3691 35.6301L27.1324 32.4876C26.6296 32.0163 26.0011 31.7649 25.3726 31.7649Z" fill="white"/>
</g>
<path d="M19.4649 16.7756C18.9307 16.7756 18.5222 16.3671 18.5222 15.8329C18.5222 13.0675 20.7848 10.805 23.5501 10.805C24.0843 10.805 24.4928 11.2135 24.4928 11.7477C24.4928 12.2819 24.0843 12.6904 23.5501 12.6904C21.8218 12.6904 20.4077 14.1045 20.4077 15.8329C20.4077 16.3671 19.9992 16.7756 19.4649 16.7756Z" fill="white"/>
<g clipPath="url(#clip1_5305_16845)">
<path d="M11.5265 33.8918C12.1877 32.4224 13.9877 31.8347 15.4571 32.4592L16.7428 33.0102L28.3877 37.8224L27.8734 35.6918L28.4979 34.2959C28.7918 33.8184 29.2326 33.451 29.7836 33.1939L39.2979 28.9326C40.3265 28.4551 41.4285 28.1979 42.5305 28.051C45.2856 27.7571 48.151 28.4918 50.0612 30.2551V41.2755L39.8489 46.4184C37.9387 47.3367 35.7346 47.4102 33.751 46.5653L13.0326 37.8224C11.5265 37.198 10.8285 35.398 11.5265 33.8918Z" fill="#F4E6DF"/>
<path d="M36.6163 47.8878C37.8286 47.8878 39.0408 47.6306 40.1429 47.0796L50.3551 41.9367L49.6939 40.6143L39.4816 45.7572C37.7551 46.602 35.7714 46.6388 34.0082 45.9041L13.3265 37.1612C12.7755 36.9408 12.3347 36.5 12.1143 35.9123C11.8939 35.3612 11.9306 34.7367 12.151 34.1857C12.6286 33.1204 13.9878 32.6429 15.1265 33.1204L16.4122 33.6714L17 32.3123L15.7143 31.7612C13.8408 30.9531 11.6367 31.7612 10.8286 33.5612C10.4245 34.4796 10.3878 35.4714 10.7551 36.4265C11.1224 37.3449 11.8204 38.0796 12.7388 38.4837L33.4571 47.2633C34.4857 47.7041 35.551 47.8878 36.6163 47.8878Z" fill="#4B061D"/>
<path d="M25.3331 35.8474L17.0103 32.323L16.4372 33.6763L24.7601 37.2007L25.3331 35.8474Z" fill="#4B061D"/>
<path d="M29.1225 34.6633C29.3429 34.2959 29.6735 34.0021 30.0776 33.8184L39.5918 29.6306C40.5469 29.2265 41.5388 28.9327 42.6041 28.8225C45.249 28.5286 47.8939 29.2265 50.0245 30.8429L50.9061 29.6674C48.4816 27.8306 45.4694 26.9857 42.4204 27.3531C41.2082 27.5 40.0694 27.7939 39.0041 28.2714L29.4898 32.4959C28.8286 32.7898 28.2776 33.2674 27.8735 33.8918L29.1225 34.6633Z" fill="#4B061D"/>
<path d="M30.9592 39.549C31.4735 39.549 31.9878 39.4388 32.4653 39.2184L39.8123 35.949L39.2245 34.5898L31.8776 37.8592C30.9959 38.2633 29.9674 38.0428 29.3429 37.3081C29.1959 37.1245 29.0857 36.9408 28.9755 36.7571L27.6163 37.3449C27.7633 37.6755 27.9837 38.0061 28.2041 38.2633C28.9388 39.1082 29.9306 39.549 30.9592 39.549Z" fill="#4B061D"/>
<path d="M27.6163 37.3449L28.9755 36.7572C28.6816 36.0959 28.7184 35.2878 29.1224 34.6633L27.8735 33.8918C27.2122 34.9204 27.102 36.2429 27.6163 37.3449Z" fill="#4B061D"/>
<path d="M57.0408 29.2755H51.8979V43.9694H57.0408V29.2755Z" fill="#4B061D"/>
</g>
</g>
<defs>
<clipPath id="clip0_5305_16845">
<rect width="56.8163" height="48" fill="white" transform="translate(0.591797 0.5)"/>
</clipPath>
<clipPath id="clip1_5305_16845">
<rect width="47.0204" height="47.0204" fill="white" transform="matrix(-1 0 0 1 57.4081 12.2551)"/>
</clipPath>
</defs>
</svg>
