<svg width="48" height="49" viewBox="0 0 48 49" fill="none" xmlns="http://www.w3.org/2000/svg">
<path d="M21.366 36.9071C29.5329 36.9071 36.1535 31.6801 36.1535 25.2322C36.1535 18.7843 29.5329 13.5573 21.366 13.5573C13.1991 13.5573 6.57849 18.7843 6.57849 25.2322C6.57849 31.6801 13.1991 36.9071 21.366 36.9071Z" fill="#F4E6DF"/>
<path d="M36.9583 19.0397C40.8473 19.0397 44 15.887 44 11.998C44 8.10902 40.8473 4.95636 36.9583 4.95636C33.0693 4.95636 29.9166 8.10902 29.9166 11.998C29.9166 15.887 33.0693 19.0397 36.9583 19.0397Z" fill="#DF9A6D"/>
<path d="M22.1708 9.46307C9.00292 9.46307 1.75 14.9908 1.75 25.0252C1.75 31.9612 5.27083 36.8199 11.9252 39.1085C12.4533 39.2845 13.0871 39.0381 13.2983 38.5099C13.5096 37.9466 13.2279 37.3129 12.6646 37.1368C6.82 35.1299 3.8625 31.081 3.8625 25.0252C3.8625 18.8989 7.03125 11.5756 22.1708 11.5756C23.2975 11.5756 24.3538 11.6108 25.3748 11.6812C25.9381 11.7164 26.431 11.2939 26.5015 10.7306C26.5015 10.7306 26.5015 10.7306 26.5015 10.6954C26.5719 10.132 26.1142 9.60391 25.5508 9.5687C24.4594 9.49828 23.3327 9.46307 22.1708 9.46307Z" fill="#4B061D"/>
<path d="M40.4792 25.0253C40.4792 35.1301 32.0996 37.8763 25.0931 38.4045C24.565 38.4397 24.0721 38.6157 23.6848 38.9326C22.4525 39.9888 22.2765 41.5732 23.051 42.7703L24.8115 45.4109C25.0227 45.7278 25.3396 45.8686 25.6917 45.8686C25.9029 45.8686 26.1142 45.7982 26.3254 45.6574C26.7831 45.3053 26.8535 44.6363 26.5367 44.1786L24.8115 41.5732C24.6002 41.2563 24.7058 40.9747 24.7762 40.8691C24.8467 40.7634 24.9875 40.4818 25.3748 40.4818C36.5006 39.6368 42.6269 34.1443 42.6269 25.0253C42.6269 24.1803 42.5565 23.3705 42.486 22.5959C42.3804 21.927 41.7115 21.5045 41.0777 21.7509C41.0777 21.7509 41.0777 21.7509 41.0425 21.7509C40.5848 21.927 40.3383 22.3847 40.3735 22.8776C40.444 23.5818 40.4792 24.3211 40.4792 25.0253Z" fill="#4B061D"/>
<path d="M24.6355 30.6585H14.073C13.4744 30.6585 13.0167 30.2008 13.0167 29.6022C13.0167 29.0037 13.4744 28.546 14.073 28.546H24.6355C25.234 28.546 25.6917 29.0037 25.6917 29.6022C25.6917 30.2008 25.234 30.6585 24.6355 30.6585Z" fill="#DF9A6D"/>
<path d="M31.6771 23.6168H14.073C13.4744 23.6168 13.0167 23.1591 13.0167 22.5605C13.0167 21.962 13.4744 21.5043 14.073 21.5043H31.6771C32.2757 21.5043 32.7334 21.962 32.7334 22.5605C32.7334 23.1591 32.2757 23.6168 31.6771 23.6168Z" fill="#DF9A6D"/>
</svg>
