<svg width="48" height="57" viewBox="0 0 48 57" fill="none" xmlns="http://www.w3.org/2000/svg">
<g clip-path="url(#clip0_5305_16830)">
<path d="M10.0858 50.9775V34.3303C15.3002 31.7038 19.124 26.837 20.1283 21.0819C20.1669 20.8502 20.2055 20.6571 20.2441 20.4253L20.4759 18.8803C20.7076 17.1808 22.2526 16.0221 23.9521 16.2538C25.6516 16.4856 26.8104 18.0306 26.5786 19.7301L26.3469 21.2751C25.3812 26.5667 24.0294 29.3477 24.0294 29.3477H32.4109C34.8057 29.3477 36.6211 31.5106 36.1962 33.9054L33.7242 47.8103C33.3766 49.6643 31.793 50.9775 29.939 50.9775H13.0213H10.0858Z" fill="#F4E6DF"/>
<path d="M29.939 51.75H10.0087V50.205H29.939C31.4454 50.205 32.72 49.1235 32.9904 47.6558L35.4624 33.7509C35.6169 32.8625 35.3851 31.9355 34.8058 31.2403C34.2264 30.545 33.338 30.1201 32.4497 30.1201H23.6046L23.3342 29.1545L23.4501 28.8841C23.6818 28.382 24.802 25.6783 25.6517 21.1206L25.8448 19.6142C25.9221 18.9962 25.7676 18.3782 25.3813 17.9147C24.9951 17.4512 24.4543 17.1036 23.8363 17.0263C23.2183 16.9491 22.6003 17.1036 22.1368 17.4898C21.6347 17.8761 21.3257 18.4168 21.2485 19.0348L21.0167 20.5798C20.9781 20.8116 20.9395 21.0433 20.9008 21.2364C19.858 27.1074 15.9569 32.2831 10.4335 35.0255L9.73828 33.635C14.8368 31.0858 18.4289 26.3349 19.3559 20.9661C19.3945 20.7729 19.4331 20.5412 19.4331 20.3481L19.6649 18.8031C19.8194 17.7602 20.3215 16.8718 21.1712 16.2538C21.9823 15.6358 23.0252 15.3655 24.0295 15.52C26.1538 15.829 27.6216 17.7602 27.3126 19.8846L27.0808 21.4296C26.4628 24.9058 25.6517 27.3392 25.1496 28.6138H32.3724C33.7629 28.6138 35.0375 29.2318 35.9259 30.2746C36.8143 31.3175 37.1619 32.708 36.9301 34.0599L34.4582 47.9648C34.1105 50.1278 32.1793 51.75 29.939 51.75Z" fill="#4B061D"/>
<path d="M1.125 33.9826H6.53247V51.75H1.125V33.9826Z" fill="#4B061D"/>
<g clip-path="url(#clip1_5305_16830)">
<path d="M47.5658 9.60293C47.9595 9.21927 48.0985 8.6562 47.9287 8.13277C47.7585 7.60934 47.3151 7.23569 46.7705 7.1564L41.9279 6.45275C41.7216 6.42272 41.5434 6.29336 41.4513 6.10634L39.2863 1.71867C39.0432 1.22568 38.5498 0.919312 38 0.919312C37.4505 0.919312 36.9571 1.22568 36.714 1.71867L34.5486 6.10674C34.4565 6.29376 34.2779 6.42312 34.0716 6.45315L29.229 7.1568C28.6848 7.23569 28.241 7.60974 28.0708 8.13317C27.901 8.6566 28.04 9.21967 28.4337 9.60333L31.9375 13.0186C32.0869 13.1644 32.1553 13.3743 32.1201 13.5793L31.2935 18.4019C31.2202 18.8264 31.3315 19.2393 31.6063 19.5649C32.0332 20.0723 32.7785 20.2269 33.3744 19.9137L37.7052 17.6366C37.8862 17.5417 38.1141 17.5425 38.2947 17.6366L42.6259 19.9137C42.8366 20.0246 43.0612 20.0807 43.2931 20.0807C43.7164 20.0807 44.1177 19.8925 44.3936 19.5649C44.6688 19.2393 44.7797 18.8256 44.7064 18.4019L43.8794 13.5793C43.8442 13.3739 43.9126 13.1644 44.062 13.0186L47.5658 9.60293Z" fill="#DF9A6D"/>
</g>
</g>
<defs>
<clipPath id="clip0_5305_16830">
<rect width="48" height="56" fill="white" transform="translate(0 0.5)"/>
</clipPath>
<clipPath id="clip1_5305_16830">
<rect width="20" height="20" fill="white" transform="translate(28 0.5)"/>
</clipPath>
</defs>
</svg>
