<svg width="48" height="49" viewBox="0 0 48 49" fill="none" xmlns="http://www.w3.org/2000/svg">
<path d="M3.04761 43.6546V15.7181C8.84443 9.92128 18.2032 9.92128 24 15.7181V43.6546H3.04761Z" fill="#F4E6DF"/>
<path d="M24 15.7181H44.9524V43.6546H24V15.7181Z" fill="#F4E6DF"/>
<path d="M40.3778 7.5816C36.8159 5.83557 33.0445 5.73081 29.7619 7.19747C26.4445 8.69906 24.0349 11.6324 22.9873 15.4387C22.9524 15.5435 22.9524 15.6133 22.9524 15.7181V43.6546C22.9524 44.1784 23.3365 44.6324 23.8603 44.7022H24C24.454 44.7022 24.873 44.3879 25.0127 43.934C25.8857 40.7213 27.8762 38.2768 30.6 37.0546C33.3238 35.8324 36.4667 35.9372 39.4699 37.4038C39.7841 37.5784 40.1683 37.5435 40.4826 37.334C40.7968 37.1594 40.9714 36.8102 40.9714 36.461V8.52446C40.9714 8.14033 40.727 7.7562 40.3778 7.5816Z" fill="#4B061D"/>
<path d="M44.9523 44.7023H29.238C28.6444 44.7023 28.1904 44.2483 28.1904 43.6547C28.1904 43.061 28.6444 42.607 29.238 42.607H43.9047V15.7182C43.9047 15.1245 44.3587 14.6705 44.9523 14.6705C45.546 14.6705 46 15.1245 46 15.7182V43.6547C46 44.2483 45.546 44.7023 44.9523 44.7023Z" fill="#DF9A6D"/>
<path d="M18.7619 44.7022H3.04762C2.45397 44.7022 2 44.2483 2 43.6546V15.7181C2 15.4387 2.10476 15.1594 2.31429 14.9848C7.37778 9.92128 15.2349 8.87366 21.4508 12.4356C21.9397 12.7149 22.1143 13.3784 21.8349 13.8673C21.5556 14.3562 20.8921 14.5308 20.4032 14.2514C15.1651 11.2133 8.53016 12.0165 4.13016 16.1721V42.607H18.7968C19.3905 42.607 19.8444 43.061 19.8444 43.6546C19.8444 44.2483 19.3556 44.7022 18.7619 44.7022Z" fill="#DF9A6D"/>
</svg>
