<svg width="102" height="32" viewBox="0 0 102 32" fill="none" xmlns="http://www.w3.org/2000/svg">
<g clipPath="url(#clip0_5767_467)">
<path d="M31.8176 29.8764C31.5757 29.5048 31.456 29.0211 31.456 28.426C31.456 27.3546 31.4484 26.2766 31.4332 25.1911C31.4181 24.1056 31.4105 23.0117 31.4105 21.9113V6.64935L31.5917 0.401454L31.0488 0L22.7666 1.91917V2.36551L23.355 2.49932C23.9586 2.64893 24.3801 2.87834 24.622 3.19086C24.8631 3.50338 24.9836 3.95719 24.9836 4.55231V28.4268C24.9836 29.558 24.4408 30.3011 23.3542 30.6577L22.8113 30.8364V31.2827H33.6283V30.8364L33.0399 30.7025C32.4667 30.5238 32.0587 30.2496 31.8176 29.8772V29.8764Z" fill="white"/>
<path d="M44.7618 29.8764C44.5199 29.5048 44.4002 29.0211 44.4002 28.426C44.4002 27.3546 44.3926 26.2766 44.3774 25.1911C44.3623 24.1056 44.3547 23.0117 44.3547 21.9113V6.64935L44.5359 0.401454L43.993 0L35.7108 1.91917V2.36551L36.2992 2.49932C36.9028 2.64893 37.3243 2.87834 37.5662 3.19086C37.8073 3.50338 37.9278 3.95719 37.9278 4.55231V28.4268C37.9278 29.558 37.385 30.3011 36.2984 30.6577L35.7555 30.8364V31.2827H46.5726V30.8364L45.9842 30.7025C45.4109 30.5238 45.0029 30.2496 44.7618 29.8772V29.8764Z" fill="white"/>
<path d="M51.3929 5.86819C52.101 6.50819 52.9693 6.82736 53.9952 6.82736C55.0211 6.82736 55.8801 6.50819 56.5747 5.86819C57.2685 5.22902 57.6158 4.4178 57.6158 3.43619C57.6158 2.45458 57.2685 1.60679 56.5747 0.981748C55.8801 0.356709 55.0203 0.0441895 53.9952 0.0441895C52.9701 0.0441895 52.101 0.356709 51.3929 0.981748C50.6832 1.60679 50.3291 2.42549 50.3291 3.43619C50.3291 4.44689 50.6832 5.22902 51.3929 5.86819Z" fill="white"/>
<path d="M57.5931 29.8987C57.3672 29.5421 57.2534 29.0659 57.2534 28.4707V15.9758L57.3891 9.63896L56.9364 9.19263L48.6542 11.8258V12.2721L49.2881 12.4059C49.8917 12.5256 50.3064 12.7409 50.5323 13.0534C50.7582 13.3659 50.872 13.8347 50.872 14.4589V28.4267C50.872 29.0218 50.7591 29.4972 50.5323 29.8546C50.3064 30.212 49.8908 30.4797 49.2881 30.6584L48.6542 30.8371V31.2834H59.2445V30.8371L58.7918 30.7033C58.2186 30.5246 57.819 30.2569 57.5922 29.9004L57.5931 29.8987Z" fill="white"/>
<path d="M81.8735 18.4969C81.903 18.1553 81.919 17.8204 81.919 17.4929C81.919 15.7682 81.5489 14.2281 80.8105 12.8741C80.0712 11.5209 79.0074 10.4496 77.6198 9.66078C76.2314 8.87283 74.5573 8.47803 72.5957 8.47803C70.6341 8.47803 68.9372 8.92436 67.2327 9.81704C65.5273 10.7097 64.1322 12.0113 63.0465 13.7219C61.9599 15.4332 61.417 17.5078 61.417 19.9473C61.417 22.3868 61.8848 24.3201 62.8197 26.0165C63.7546 27.7121 65.0527 29.0137 66.7117 29.9213C68.3707 30.829 70.2716 31.2828 72.4144 31.2828C74.5573 31.2828 76.4498 30.8215 78.0042 29.8997C79.5578 28.978 80.802 27.6988 81.7377 26.0622L81.2851 25.6608C80.4699 26.5834 79.5949 27.2824 78.6601 27.7586C77.7243 28.2349 76.5029 28.4726 74.9939 28.4726C72.7609 28.4726 71.0792 27.7661 69.9479 26.3531C68.8166 24.9402 68.235 22.627 68.2055 19.4137H81.6931C81.7833 19.1461 81.8431 18.841 81.8743 18.4986L81.8735 18.4969ZM75.9448 18.5194H68.2055C68.235 16.1098 68.4238 14.243 68.7711 12.919C69.1176 11.5957 69.6006 10.6731 70.2193 10.152C70.8372 9.63169 71.5841 9.3707 72.46 9.3707C73.9984 9.3707 75.0395 10.0847 75.5832 11.5126C76.1261 12.9406 76.2466 15.2762 75.9448 18.5185V18.5194Z" fill="white"/>
<path d="M100.521 19.9697C99.5855 18.8252 98.0319 17.9242 95.8596 17.2701L93.823 16.6899C92.314 16.1846 91.1752 15.6343 90.4055 15.0392C89.6359 14.4441 89.2515 13.6412 89.2515 12.6297C89.2515 11.6181 89.7042 10.7853 90.6095 10.2201C91.5149 9.65491 92.4801 9.37231 93.506 9.37231C94.6221 9.37231 95.4592 9.57346 96.0181 9.97491C96.5761 10.3764 97.1417 11.0679 97.715 12.0503L99.2989 14.8173H99.7516L100.023 9.99735C99.057 9.492 98.0547 9.11216 97.0136 8.85948C95.9725 8.60681 94.864 8.48047 93.6872 8.48047C90.7604 8.48047 88.5122 9.16535 86.9434 10.5335C85.3738 11.9024 84.5898 13.5681 84.5898 15.5313C84.5898 17.1678 85.1175 18.5509 86.1738 19.6813C87.2292 20.8125 88.6774 21.6445 90.5185 22.1806L92.4194 22.7608C94.1391 23.267 95.3159 23.8322 95.9498 24.4564C96.5837 25.0814 96.9007 25.8843 96.9007 26.8659C96.9007 27.9365 96.4556 28.7926 95.5654 29.4317C94.6752 30.0717 93.506 30.3909 92.0578 30.3909C90.8203 30.3909 89.802 30.1008 89.0028 29.5207C88.2028 28.9405 87.4711 28.0562 86.8077 26.8659L85.2693 24.1887H84.8166L84.7711 29.4991C85.7666 30.0052 86.8532 30.4291 88.0292 30.7708C89.206 31.1124 90.5337 31.2836 92.0122 31.2836C95.1498 31.2836 97.586 30.6286 99.3217 29.3204C101.057 28.0113 101.924 26.2708 101.924 24.099C101.924 22.4923 101.456 21.1167 100.521 19.9714V19.9697Z" fill="white"/>
<path d="M21.8684 29.2221C20.3063 29.3194 18.8986 29.1407 18.9466 27.1916C18.5917 23.2602 20.2069 13.3743 16.733 10.8325C14.392 8.54018 9.07201 8.48532 5.80042 9.50101C3.24958 10.2757 1.04941 11.795 1.05278 14.5105C1.05278 15.3225 1.31073 15.97 1.82916 16.4512C2.89468 17.4811 4.93215 17.4029 5.93698 16.2709C6.51442 15.6699 6.83475 14.7216 6.89544 13.4274C7.04718 12.3536 7.28658 10.9805 7.80838 10.5167C8.84525 9.35057 11.1938 9.70132 11.8935 11.0586C12.8528 12.3145 12.6302 16.8992 12.6471 18.9331C9.20858 19.4567 4.16926 20.4292 2.19417 22.2503C-0.772256 24.3681 -0.559826 28.4483 1.8064 30.4415C3.77391 32.2185 7.86234 32.4479 9.97737 30.9152C10.9358 30.2387 11.8715 29.4191 12.7845 28.4558C13.3383 30.6892 15.0276 31.8678 17.4857 31.8403C19.8124 31.8453 20.931 31.2028 22.2789 29.5837L21.8684 29.223V29.2221ZM12.1674 25.1719C11.9482 25.8368 11.6751 26.5317 11.246 27.0944C11.1129 27.2689 10.9653 27.4326 10.806 27.5831C10.425 27.943 9.974 28.2306 9.4817 28.4184C9.34176 28.4716 9.20014 28.5165 9.05431 28.5531C8.27624 28.7858 7.42483 28.8082 6.6729 28.4558C4.65987 27.6163 3.98718 25.2932 5.39579 23.827C5.8021 23.3832 6.3787 23.1421 6.95024 22.9817C7.48805 22.8305 8.04273 22.7349 8.56201 22.5296C9.1032 22.316 9.59129 21.9893 10.0473 21.6311C10.6079 21.1914 11.413 21.0102 11.9963 21.5488C12.4405 21.9212 12.5476 22.5429 12.5493 23.0881C12.551 23.7946 12.3883 24.5028 12.1674 25.1719Z" fill="white"/>
</g>
<defs>
<clipPath id="clip0_5767_467">
<rect width="102" height="32" fill="white"/>
</clipPath>
</defs>
</svg>
