<svg width="102" height="33" viewBox="0 0 102 33" fill="none" xmlns="http://www.w3.org/2000/svg">
<g clip-path="url(#clip0_5786_771)">
<path d="M31.8176 30.3764C31.5757 30.0048 31.456 29.5211 31.456 28.926C31.456 27.8546 31.4484 26.7766 31.4332 25.6911C31.4181 24.6056 31.4105 23.5117 31.4105 22.4113V7.14935L31.5917 0.901454L31.0488 0.5L22.7666 2.41917V2.86551L23.355 2.99932C23.9586 3.14893 24.3801 3.37834 24.622 3.69086C24.8631 4.00338 24.9836 4.45719 24.9836 5.05231V28.9268C24.9836 30.058 24.4408 30.8011 23.3542 31.1577L22.8113 31.3364V31.7827H33.6283V31.3364L33.0399 31.2025C32.4667 31.0238 32.0587 30.7496 31.8176 30.3772V30.3764Z" fill="#4B061D"/>
<path d="M44.7618 30.3764C44.5199 30.0048 44.4002 29.5211 44.4002 28.926C44.4002 27.8546 44.3926 26.7766 44.3774 25.6911C44.3623 24.6056 44.3547 23.5117 44.3547 22.4113V7.14935L44.5359 0.901454L43.993 0.5L35.7108 2.41917V2.86551L36.2992 2.99932C36.9028 3.14893 37.3243 3.37834 37.5662 3.69086C37.8073 4.00338 37.9278 4.45719 37.9278 5.05231V28.9268C37.9278 30.058 37.385 30.8011 36.2984 31.1577L35.7555 31.3364V31.7827H46.5726V31.3364L45.9842 31.2025C45.4109 31.0238 45.0029 30.7496 44.7618 30.3772V30.3764Z" fill="#4B061D"/>
<path d="M51.3929 6.36819C52.101 7.00819 52.9693 7.32736 53.9952 7.32736C55.0211 7.32736 55.8801 7.00819 56.5747 6.36819C57.2685 5.72902 57.6158 4.9178 57.6158 3.93619C57.6158 2.95458 57.2685 2.10679 56.5747 1.48175C55.8801 0.856709 55.0203 0.544189 53.9952 0.544189C52.9701 0.544189 52.101 0.856709 51.3929 1.48175C50.6832 2.10679 50.3291 2.92549 50.3291 3.93619C50.3291 4.94689 50.6832 5.72902 51.3929 6.36819Z" fill="#4B061D"/>
<path d="M57.5931 30.3987C57.3672 30.0421 57.2534 29.5659 57.2534 28.9707V16.4758L57.3891 10.139L56.9364 9.69263L48.6542 12.3258V12.7721L49.2881 12.9059C49.8917 13.0256 50.3064 13.2409 50.5323 13.5534C50.7582 13.8659 50.872 14.3347 50.872 14.9589V28.9267C50.872 29.5218 50.7591 29.9972 50.5323 30.3546C50.3064 30.712 49.8908 30.9797 49.2881 31.1584L48.6542 31.3371V31.7834H59.2445V31.3371L58.7918 31.2033C58.2186 31.0246 57.819 30.7569 57.5922 30.4004L57.5931 30.3987Z" fill="#4B061D"/>
<path d="M81.8735 18.9969C81.903 18.6553 81.919 18.3204 81.919 17.9929C81.919 16.2682 81.5489 14.7281 80.8105 13.3741C80.0712 12.0209 79.0074 10.9496 77.6198 10.1608C76.2314 9.37283 74.5573 8.97803 72.5957 8.97803C70.6341 8.97803 68.9372 9.42436 67.2327 10.317C65.5273 11.2097 64.1322 12.5113 63.0465 14.2219C61.9599 15.9332 61.417 18.0078 61.417 20.4473C61.417 22.8868 61.8848 24.8201 62.8197 26.5165C63.7546 28.2121 65.0527 29.5137 66.7117 30.4213C68.3707 31.329 70.2716 31.7828 72.4144 31.7828C74.5573 31.7828 76.4498 31.3215 78.0042 30.3997C79.5578 29.478 80.802 28.1988 81.7377 26.5622L81.2851 26.1608C80.4699 27.0834 79.5949 27.7824 78.6601 28.2586C77.7243 28.7349 76.5029 28.9726 74.9939 28.9726C72.7609 28.9726 71.0792 28.2661 69.9479 26.8531C68.8166 25.4402 68.235 23.127 68.2055 19.9137H81.6931C81.7833 19.6461 81.8431 19.341 81.8743 18.9986L81.8735 18.9969ZM75.9448 19.0194H68.2055C68.235 16.6098 68.4238 14.743 68.7711 13.419C69.1176 12.0957 69.6006 11.1731 70.2193 10.652C70.8372 10.1317 71.5841 9.8707 72.46 9.8707C73.9984 9.8707 75.0395 10.5847 75.5832 12.0126C76.1261 13.4406 76.2466 15.7762 75.9448 19.0185V19.0194Z" fill="#4B061D"/>
<path d="M100.521 20.4697C99.5855 19.3252 98.0319 18.4242 95.8596 17.7701L93.823 17.1899C92.314 16.6846 91.1752 16.1343 90.4055 15.5392C89.6359 14.9441 89.2515 14.1412 89.2515 13.1297C89.2515 12.1181 89.7042 11.2853 90.6095 10.7201C91.5149 10.1549 92.4801 9.87231 93.506 9.87231C94.6221 9.87231 95.4592 10.0735 96.0181 10.4749C96.5761 10.8764 97.1417 11.5679 97.715 12.5503L99.2989 15.3173H99.7516L100.023 10.4974C99.057 9.992 98.0547 9.61216 97.0136 9.35948C95.9725 9.10681 94.864 8.98047 93.6872 8.98047C90.7604 8.98047 88.5122 9.66535 86.9434 11.0335C85.3738 12.4024 84.5898 14.0681 84.5898 16.0313C84.5898 17.6678 85.1175 19.0509 86.1738 20.1813C87.2292 21.3125 88.6774 22.1445 90.5185 22.6806L92.4194 23.2608C94.1391 23.767 95.3159 24.3322 95.9498 24.9564C96.5837 25.5814 96.9007 26.3843 96.9007 27.3659C96.9007 28.4365 96.4556 29.2926 95.5654 29.9317C94.6752 30.5717 93.506 30.8909 92.0578 30.8909C90.8203 30.8909 89.802 30.6008 89.0028 30.0207C88.2028 29.4405 87.4711 28.5562 86.8077 27.3659L85.2693 24.6887H84.8166L84.7711 29.9991C85.7666 30.5052 86.8532 30.9291 88.0292 31.2708C89.206 31.6124 90.5337 31.7836 92.0122 31.7836C95.1498 31.7836 97.586 31.1286 99.3217 29.8204C101.057 28.5113 101.924 26.7708 101.924 24.599C101.924 22.9923 101.456 21.6167 100.521 20.4714V20.4697Z" fill="#4B061D"/>
<path d="M21.8684 29.7221C20.3063 29.8194 18.8986 29.6407 18.9466 27.6916C18.5917 23.7602 20.2069 13.8743 16.733 11.3325C14.392 9.04018 9.07201 8.98532 5.80042 10.001C3.24958 10.7757 1.04941 12.295 1.05278 15.0105C1.05278 15.8225 1.31073 16.47 1.82916 16.9512C2.89468 17.9811 4.93215 17.9029 5.93698 16.7709C6.51442 16.1699 6.83475 15.2216 6.89544 13.9274C7.04718 12.8536 7.28658 11.4805 7.80838 11.0167C8.84525 9.85057 11.1938 10.2013 11.8935 11.5586C12.8528 12.8145 12.6302 17.3992 12.6471 19.4331C9.20858 19.9567 4.16926 20.9292 2.19417 22.7503C-0.772256 24.8681 -0.559826 28.9483 1.8064 30.9415C3.77391 32.7185 7.86234 32.9479 9.97737 31.4152C10.9358 30.7387 11.8715 29.9191 12.7845 28.9558C13.3383 31.1892 15.0276 32.3678 17.4857 32.3403C19.8124 32.3453 20.931 31.7028 22.2789 30.0837L21.8684 29.723V29.7221ZM12.1674 25.6719C11.9482 26.3368 11.6751 27.0317 11.246 27.5944C11.1129 27.7689 10.9653 27.9326 10.806 28.0831C10.425 28.443 9.974 28.7306 9.4817 28.9184C9.34176 28.9716 9.20014 29.0165 9.05431 29.0531C8.27624 29.2858 7.42483 29.3082 6.6729 28.9558C4.65987 28.1163 3.98718 25.7932 5.39579 24.327C5.8021 23.8832 6.3787 23.6421 6.95024 23.4817C7.48805 23.3305 8.04273 23.2349 8.56201 23.0296C9.1032 22.816 9.59129 22.4893 10.0473 22.1311C10.6079 21.6914 11.413 21.5102 11.9963 22.0488C12.4405 22.4212 12.5476 23.0429 12.5493 23.5881C12.551 24.2946 12.3883 25.0028 12.1674 25.6719Z" fill="#4B061D"/>
</g>
<defs>
<clipPath id="clip0_5786_771">
<rect width="102" height="32" fill="white" transform="translate(0 0.5)"/>
</clipPath>
</defs>
</svg>
